# xmcd
# 
# Track frame offsets:
#     150
#     12393
#     27421
#     41512
#     55852
#     72786
#     85953
#     102479
#     119270
#     131488
#     152168
# 
# Disc length: 2334
# 
# Revision: 2
# Processed by: cddbd v1.5.2PL0 Copyright (c) Steve Scherf et al.
# Submitted via: fre:ac v1.0.17
# 
DISCID=8f091c0b
DTITLE=Easton Corbin - All Over The Road
DYEAR=2012
DGENRE=Country
TTITLE0=All Over The Road
TTITLE1=Lovin' You Is Fun
TTITLE2=That's Gonna Leave A Memory
TTITLE3=Hearts Drawn In The Sand
TTITLE4=Dance Real Slow
TTITLE5=A Thing For You
TTITLE6=Are You With Me?
TTITLE7=This Feels A Lot Like Love
TTITLE8=Only A Girl
TTITLE9=Tulsa Texas
TTITLE10=I Think Of You
EXTD=
EXTT0=
EXTT1=
EXTT2=
EXTT3=
EXTT4=
EXTT5=
EXTT6=
EXTT7=
EXTT8=
EXTT9=
EXTT10=
PLAYORDER=
